<mxfile host="app.diagrams.net" agent="Mozilla/5.0 (Windows NT 10.0; Win64; x64) AppleWebKit/537.36 (KHTML, like Gecko) Chrome/131.0.0.0 Safari/537.36" version="25.0.3">
  <diagram name="PÃ¡gina-1" id="XH64_5pLboMdZGcUG65h">
    <mxGraphModel dx="1500" dy="746" grid="1" gridSize="10" guides="1" tooltips="1" connect="1" arrows="1" fold="1" page="1" pageScale="1" pageWidth="827" pageHeight="1169" math="0" shadow="0">
      <root>
        <mxCell id="0" />
        <mxCell id="1" parent="0" />
        <mxCell id="2jGhevT7NPW01Q9exzGF-1" value="virtual network" style="image;aspect=fixed;html=1;points=[];align=center;fontSize=12;image=img/lib/azure2/networking/Virtual_Networks.svg;" vertex="1" parent="1">
          <mxGeometry x="540" y="700" width="27" height="16.12" as="geometry" />
        </mxCell>
        <mxCell id="2jGhevT7NPW01Q9exzGF-2" value="AKS" style="image;aspect=fixed;html=1;points=[];align=center;fontSize=12;image=img/lib/azure2/containers/Kubernetes_Services.svg;" vertex="1" parent="1">
          <mxGeometry x="377.01" y="617" width="48.73" height="43" as="geometry" />
        </mxCell>
        <mxCell id="2jGhevT7NPW01Q9exzGF-3" value="Container registry" style="image;aspect=fixed;html=1;points=[];align=center;fontSize=12;image=img/lib/azure2/containers/Container_Registries.svg;" vertex="1" parent="1">
          <mxGeometry x="377.01" y="760" width="45.74" height="41.03" as="geometry" />
        </mxCell>
        <mxCell id="2jGhevT7NPW01Q9exzGF-5" value="Load Balancer" style="image;aspect=fixed;html=1;points=[];align=center;fontSize=12;image=img/lib/azure2/networking/Application_Gateways.svg;" vertex="1" parent="1">
          <mxGeometry x="251" y="507" width="46" height="46" as="geometry" />
        </mxCell>
        <mxCell id="2jGhevT7NPW01Q9exzGF-6" value="WAF" style="image;aspect=fixed;html=1;points=[];align=center;fontSize=12;image=img/lib/azure2/networking/Web_Application_Firewall_Policies_WAF.svg;" vertex="1" parent="1">
          <mxGeometry x="130" y="507" width="48" height="48" as="geometry" />
        </mxCell>
        <mxCell id="2jGhevT7NPW01Q9exzGF-8" value="CI/CD Pipeline" style="image;sketch=0;aspect=fixed;html=1;points=[];align=center;fontSize=12;image=img/lib/mscae/Azure_Pipelines.svg;" vertex="1" parent="1">
          <mxGeometry x="380" y="890" width="50" height="50" as="geometry" />
        </mxCell>
        <mxCell id="2jGhevT7NPW01Q9exzGF-18" value="virtual network" style="image;aspect=fixed;html=1;points=[];align=center;fontSize=12;image=img/lib/azure2/networking/Virtual_Networks.svg;" vertex="1" parent="1">
          <mxGeometry x="650" y="700" width="27" height="16.12" as="geometry" />
        </mxCell>
        <mxCell id="2jGhevT7NPW01Q9exzGF-19" value="DB&amp;nbsp;&lt;span style=&quot;color: rgba(0, 0, 0, 0); font-family: monospace; font-size: 0px; text-align: start; background-color: rgb(251, 251, 251);&quot;&gt;%3CmxGraphModel%3E%3Croot%3E%3CmxCell%20id%3D%220%22%2F%3E%3CmxCell%20id%3D%221%22%20parent%3D%220%22%2F%3E%3CmxCell%20id%3D%222%22%20value%3D%22virtual%20network%22%20style%3D%22image%3Baspect%3Dfixed%3Bhtml%3D1%3Bpoints%3D%5B%5D%3Balign%3Dcenter%3BfontSize%3D12%3Bimage%3Dimg%2Flib%2Fazure2%2Fnetworking%2FVirtual_Networks.svg%3B%22%20vertex%3D%221%22%20parent%3D%221%22%3E%3CmxGeometry%20x%3D%22540%22%20y%3D%22700%22%20width%3D%2227%22%20height%3D%2216.12%22%20as%3D%22geometry%22%2F%3E%3C%2FmxCell%3E%3C%2Froot%3E%3C%2FmxGraphModel%3E&lt;/span&gt;" style="image;aspect=fixed;html=1;points=[];align=center;fontSize=12;image=img/lib/azure2/databases/Azure_Database_PostgreSQL_Server.svg;" vertex="1" parent="1">
          <mxGeometry x="698" y="430" width="48" height="64" as="geometry" />
        </mxCell>
        <mxCell id="2jGhevT7NPW01Q9exzGF-20" value="Replica 1" style="image;aspect=fixed;html=1;points=[];align=center;fontSize=12;image=img/lib/azure2/databases/Azure_Database_PostgreSQL_Server.svg;" vertex="1" parent="1">
          <mxGeometry x="650" y="553" width="48" height="64" as="geometry" />
        </mxCell>
        <mxCell id="2jGhevT7NPW01Q9exzGF-21" value="Replica 2" style="image;aspect=fixed;html=1;points=[];align=center;fontSize=12;image=img/lib/azure2/databases/Azure_Database_PostgreSQL_Server.svg;" vertex="1" parent="1">
          <mxGeometry x="738" y="553" width="48" height="64" as="geometry" />
        </mxCell>
        <mxCell id="2jGhevT7NPW01Q9exzGF-22" value="" style="edgeStyle=orthogonalEdgeStyle;html=1;endArrow=block;elbow=vertical;startArrow=none;endFill=1;strokeColor=#545B64;rounded=0;" edge="1" parent="1" source="2jGhevT7NPW01Q9exzGF-19" target="2jGhevT7NPW01Q9exzGF-21">
          <mxGeometry width="100" relative="1" as="geometry">
            <mxPoint x="670" y="350" as="sourcePoint" />
            <mxPoint x="770" y="350" as="targetPoint" />
          </mxGeometry>
        </mxCell>
        <mxCell id="2jGhevT7NPW01Q9exzGF-23" value="" style="edgeStyle=orthogonalEdgeStyle;html=1;endArrow=block;elbow=vertical;startArrow=none;endFill=1;strokeColor=#545B64;rounded=0;exitX=0.483;exitY=0.95;exitDx=0;exitDy=0;exitPerimeter=0;" edge="1" parent="1" source="2jGhevT7NPW01Q9exzGF-19" target="2jGhevT7NPW01Q9exzGF-20">
          <mxGeometry width="100" relative="1" as="geometry">
            <mxPoint x="660" y="360" as="sourcePoint" />
            <mxPoint x="760" y="360" as="targetPoint" />
          </mxGeometry>
        </mxCell>
        <mxCell id="2jGhevT7NPW01Q9exzGF-24" value="" style="fillColor=none;strokeColor=#147EBA;dashed=1;verticalAlign=top;fontStyle=0;fontColor=#147EBA;whiteSpace=wrap;html=1;" vertex="1" parent="1">
          <mxGeometry x="630" y="400" width="190" height="294" as="geometry" />
        </mxCell>
        <mxCell id="2jGhevT7NPW01Q9exzGF-25" value="Ingress" style="aspect=fixed;sketch=0;html=1;dashed=0;whitespace=wrap;verticalLabelPosition=bottom;verticalAlign=top;fillColor=#2875E2;strokeColor=#ffffff;points=[[0.005,0.63,0],[0.1,0.2,0],[0.9,0.2,0],[0.5,0,0],[0.995,0.63,0],[0.72,0.99,0],[0.5,1,0],[0.28,0.99,0]];shape=mxgraph.kubernetes.icon2;prIcon=pod" vertex="1" parent="1">
          <mxGeometry x="360" y="502" width="50" height="48" as="geometry" />
        </mxCell>
        <mxCell id="2jGhevT7NPW01Q9exzGF-26" value="" style="aspect=fixed;sketch=0;html=1;dashed=0;whitespace=wrap;verticalLabelPosition=bottom;verticalAlign=top;fillColor=#2875E2;strokeColor=#ffffff;points=[[0.005,0.63,0],[0.1,0.2,0],[0.9,0.2,0],[0.5,0,0],[0.995,0.63,0],[0.72,0.99,0],[0.5,1,0],[0.28,0.99,0]];shape=mxgraph.kubernetes.icon2;prIcon=pod" vertex="1" parent="1">
          <mxGeometry x="517" y="468.06" width="50" height="48" as="geometry" />
        </mxCell>
        <mxCell id="2jGhevT7NPW01Q9exzGF-27" value="" style="aspect=fixed;sketch=0;html=1;dashed=0;whitespace=wrap;verticalLabelPosition=bottom;verticalAlign=top;fillColor=#2875E2;strokeColor=#ffffff;points=[[0.005,0.63,0],[0.1,0.2,0],[0.9,0.2,0],[0.5,0,0],[0.995,0.63,0],[0.72,0.99,0],[0.5,1,0],[0.28,0.99,0]];shape=mxgraph.kubernetes.icon2;prIcon=pod" vertex="1" parent="1">
          <mxGeometry x="517" y="542" width="50" height="48" as="geometry" />
        </mxCell>
        <mxCell id="2jGhevT7NPW01Q9exzGF-34" value="User" style="shadow=0;dashed=0;html=1;strokeColor=none;fillColor=#4495D1;labelPosition=center;verticalLabelPosition=bottom;verticalAlign=top;align=center;outlineConnect=0;shape=mxgraph.veeam.2d.user;" vertex="1" parent="1">
          <mxGeometry x="30" y="510" width="30" height="40" as="geometry" />
        </mxCell>
        <mxCell id="2jGhevT7NPW01Q9exzGF-35" value="" style="edgeStyle=orthogonalEdgeStyle;html=1;endArrow=block;elbow=vertical;startArrow=none;endFill=1;strokeColor=#545B64;rounded=0;" edge="1" parent="1">
          <mxGeometry width="100" relative="1" as="geometry">
            <mxPoint x="71" y="532" as="sourcePoint" />
            <mxPoint x="120" y="532" as="targetPoint" />
          </mxGeometry>
        </mxCell>
        <mxCell id="2jGhevT7NPW01Q9exzGF-36" value="" style="edgeStyle=orthogonalEdgeStyle;html=1;endArrow=block;elbow=vertical;startArrow=none;endFill=1;strokeColor=#545B64;rounded=0;" edge="1" parent="1">
          <mxGeometry width="100" relative="1" as="geometry">
            <mxPoint x="180" y="530" as="sourcePoint" />
            <mxPoint x="240" y="530" as="targetPoint" />
          </mxGeometry>
        </mxCell>
        <mxCell id="2jGhevT7NPW01Q9exzGF-37" value="" style="edgeStyle=orthogonalEdgeStyle;html=1;endArrow=block;elbow=vertical;startArrow=none;endFill=1;strokeColor=#545B64;rounded=0;" edge="1" parent="1">
          <mxGeometry width="100" relative="1" as="geometry">
            <mxPoint x="299" y="530" as="sourcePoint" />
            <mxPoint x="359" y="530" as="targetPoint" />
          </mxGeometry>
        </mxCell>
        <mxCell id="2jGhevT7NPW01Q9exzGF-38" value="" style="endArrow=classic;startArrow=classic;html=1;rounded=0;" edge="1" parent="1">
          <mxGeometry width="50" height="50" relative="1" as="geometry">
            <mxPoint x="400" y="750" as="sourcePoint" />
            <mxPoint x="400" y="680" as="targetPoint" />
          </mxGeometry>
        </mxCell>
        <mxCell id="2jGhevT7NPW01Q9exzGF-39" value="" style="endArrow=classic;startArrow=classic;html=1;rounded=0;" edge="1" parent="1">
          <mxGeometry width="50" height="50" relative="1" as="geometry">
            <mxPoint x="401" y="882" as="sourcePoint" />
            <mxPoint x="401" y="820" as="targetPoint" />
          </mxGeometry>
        </mxCell>
        <mxCell id="2jGhevT7NPW01Q9exzGF-41" value="Blob storage" style="image;sketch=0;aspect=fixed;html=1;points=[];align=center;fontSize=12;image=img/lib/mscae/BlobBlock.svg;" vertex="1" parent="1">
          <mxGeometry x="517" y="290" width="50" height="42" as="geometry" />
        </mxCell>
        <mxCell id="2jGhevT7NPW01Q9exzGF-42" value="" style="endArrow=classic;startArrow=classic;html=1;rounded=0;" edge="1" parent="1">
          <mxGeometry width="50" height="50" relative="1" as="geometry">
            <mxPoint x="550" y="450" as="sourcePoint" />
            <mxPoint x="550" y="350" as="targetPoint" />
          </mxGeometry>
        </mxCell>
        <mxCell id="2jGhevT7NPW01Q9exzGF-43" value="Bastion" style="verticalLabelPosition=bottom;html=1;verticalAlign=top;align=center;strokeColor=none;fillColor=#00BEF2;shape=mxgraph.azure.computer;pointerEvents=1;" vertex="1" parent="1">
          <mxGeometry x="528.5" y="780" width="50" height="45" as="geometry" />
        </mxCell>
        <mxCell id="2jGhevT7NPW01Q9exzGF-44" value="Devops" style="shadow=0;dashed=0;html=1;strokeColor=none;fillColor=#4495D1;labelPosition=center;verticalLabelPosition=bottom;verticalAlign=top;align=center;outlineConnect=0;shape=mxgraph.veeam.2d.user;" vertex="1" parent="1">
          <mxGeometry x="537" y="890" width="30" height="40" as="geometry" />
        </mxCell>
        <mxCell id="2jGhevT7NPW01Q9exzGF-46" value="" style="endArrow=classic;html=1;rounded=0;" edge="1" parent="1">
          <mxGeometry width="50" height="50" relative="1" as="geometry">
            <mxPoint x="560" y="880" as="sourcePoint" />
            <mxPoint x="560" y="850" as="targetPoint" />
          </mxGeometry>
        </mxCell>
        <mxCell id="2jGhevT7NPW01Q9exzGF-47" value="" style="endArrow=classic;html=1;rounded=0;" edge="1" parent="1">
          <mxGeometry width="50" height="50" relative="1" as="geometry">
            <mxPoint x="560" y="770" as="sourcePoint" />
            <mxPoint x="560" y="740" as="targetPoint" />
          </mxGeometry>
        </mxCell>
        <mxCell id="2jGhevT7NPW01Q9exzGF-49" value="" style="endArrow=classic;startArrow=classic;html=1;rounded=0;entryX=0.02;entryY=0.444;entryDx=0;entryDy=0;entryPerimeter=0;" edge="1" parent="1" target="2jGhevT7NPW01Q9exzGF-24">
          <mxGeometry width="50" height="50" relative="1" as="geometry">
            <mxPoint x="560" y="530" as="sourcePoint" />
            <mxPoint x="620" y="530" as="targetPoint" />
          </mxGeometry>
        </mxCell>
        <mxCell id="2jGhevT7NPW01Q9exzGF-50" value="Backend" style="fillColor=none;strokeColor=#147EBA;dashed=1;verticalAlign=top;fontStyle=0;fontColor=#147EBA;whiteSpace=wrap;html=1;" vertex="1" parent="1">
          <mxGeometry x="490" y="450" width="100" height="150" as="geometry" />
        </mxCell>
        <mxCell id="2jGhevT7NPW01Q9exzGF-51" value="Frontend" style="fillColor=none;strokeColor=#147EBA;dashed=1;verticalAlign=top;fontStyle=0;fontColor=#147EBA;whiteSpace=wrap;html=1;" vertex="1" parent="1">
          <mxGeometry x="340" y="450" width="90" height="150" as="geometry" />
        </mxCell>
        <mxCell id="2jGhevT7NPW01Q9exzGF-53" value="&lt;span style=&quot;color: rgba(0, 0, 0, 0); font-family: monospace; font-size: 0px; text-align: start; text-wrap-mode: nowrap;&quot;&gt;%3CmxGraphModel%3E%3Croot%3E%3CmxCell%20id%3D%220%22%2F%3E%3CmxCell%20id%3D%221%22%20parent%3D%220%22%2F%3E%3CmxCell%20id%3D%222%22%20value%3D%22%22%20style%3D%22fillColor%3Dnone%3BstrokeColor%3D%23147EBA%3Bdashed%3D1%3BverticalAlign%3Dtop%3BfontStyle%3D0%3BfontColor%3D%23147EBA%3BwhiteSpace%3Dwrap%3Bhtml%3D1%3B%22%20vertex%3D%221%22%20parent%3D%221%22%3E%3CmxGeometry%20x%3D%22630%22%20y%3D%22400%22%20width%3D%22190%22%20height%3D%22294%22%20as%3D%22geometry%22%2F%3E%3C%2FmxCell%3E%3C%2Froot%3E%3C%2FmxGraphModel%3E&lt;/span&gt;" style="fillColor=none;strokeColor=#147EBA;dashed=1;verticalAlign=top;fontStyle=0;fontColor=#147EBA;whiteSpace=wrap;html=1;direction=south;" vertex="1" parent="1">
          <mxGeometry x="330" y="413" width="280" height="281" as="geometry" />
        </mxCell>
        <mxCell id="2jGhevT7NPW01Q9exzGF-56" value="Grafana" style="image;aspect=fixed;html=1;points=[];align=center;fontSize=12;image=img/lib/azure2/other/Grafana.svg;" vertex="1" parent="1">
          <mxGeometry x="270" y="655.95" width="49" height="38.05" as="geometry" />
        </mxCell>
        <mxCell id="2jGhevT7NPW01Q9exzGF-62" value="" style="endArrow=classic;startArrow=classic;html=1;rounded=0;" edge="1" parent="1">
          <mxGeometry width="50" height="50" relative="1" as="geometry">
            <mxPoint x="440" y="530" as="sourcePoint" />
            <mxPoint x="480" y="530" as="targetPoint" />
          </mxGeometry>
        </mxCell>
      </root>
    </mxGraphModel>
  </diagram>
</mxfile>
